<svg width="567" height="149" viewBox="0 0 567 149" fill="none" xmlns="http://www.w3.org/2000/svg">
<g id="Group 1253">
<path id="Modify" d="M87.44 6V66H77.36V9.2L80.64 9.36L52.72 66H41.44L13.52 9.44L16.8 9.28V66H6.72V6H22.88L49.76 61.44H44.48L71.28 6H87.44ZM124.076 67.12C118.582 67.12 113.756 66.1333 109.596 64.16C105.489 62.1333 102.262 59.3333 99.9156 55.76C97.6223 52.1867 96.4756 48.0533 96.4756 43.36C96.4756 38.6133 97.6223 34.48 99.9156 30.96C102.262 27.3867 105.489 24.6133 109.596 22.64C113.756 20.6133 118.582 19.6 124.076 19.6C129.569 19.6 134.369 20.6133 138.476 22.64C142.636 24.6133 145.862 27.3867 148.156 30.96C150.502 34.48 151.676 38.6133 151.676 43.36C151.676 48.0533 150.502 52.1867 148.156 55.76C145.862 59.3333 142.636 62.1333 138.476 64.16C134.369 66.1333 129.569 67.12 124.076 67.12ZM124.076 58.96C127.596 58.96 130.609 58.32 133.116 57.04C135.676 55.76 137.649 53.9733 139.036 51.68C140.422 49.3333 141.116 46.56 141.116 43.36C141.116 40.16 140.422 37.4133 139.036 35.12C137.649 32.7733 135.676 30.96 133.116 29.68C130.609 28.4 127.596 27.76 124.076 27.76C120.609 27.76 117.596 28.4 115.036 29.68C112.476 30.96 110.502 32.7733 109.116 35.12C107.729 37.4133 107.036 40.16 107.036 43.36C107.036 46.56 107.729 49.3333 109.116 51.68C110.502 53.9733 112.476 55.76 115.036 57.04C117.596 58.32 120.609 58.96 124.076 58.96ZM202.529 66L200.769 48.8L203.089 43.44L200.849 37.28L204.209 4.4H214.929L210.849 42.72L213.169 66H202.529ZM205.569 43.36C204.556 48.1067 202.876 52.2667 200.529 55.84C198.183 59.4133 195.276 62.1867 191.809 64.16C188.396 66.1333 184.583 67.12 180.369 67.12C175.943 67.12 172.023 66.1333 168.609 64.16C165.196 62.1333 162.529 59.3333 160.609 55.76C158.689 52.1867 157.729 48.0533 157.729 43.36C157.729 38.6133 158.689 34.48 160.609 30.96C162.529 27.3867 165.196 24.6133 168.609 22.64C172.023 20.6133 175.943 19.6 180.369 19.6C184.583 19.6 188.396 20.5867 191.809 22.56C195.276 24.5333 198.183 27.3067 200.529 30.88C202.929 34.4 204.609 38.56 205.569 43.36ZM168.289 43.36C168.289 46.4 168.903 49.0933 170.129 51.44C171.409 53.7333 173.143 55.5467 175.329 56.88C177.516 58.16 180.023 58.8 182.849 58.8C185.729 58.8 188.396 58.16 190.849 56.88C193.303 55.5467 195.463 53.7333 197.329 51.44C199.249 49.0933 200.769 46.4 201.889 43.36C200.769 40.32 199.249 37.6533 197.329 35.36C195.463 33.0133 193.303 31.2 190.849 29.92C188.396 28.5867 185.729 27.92 182.849 27.92C180.023 27.92 177.516 28.5867 175.329 29.92C173.143 31.2 171.409 33.0133 170.129 35.36C168.903 37.6533 168.289 40.32 168.289 43.36ZM223.176 20.4L228.376 21.36L233.576 20.4V66H223.176V20.4ZM228.376 14.72C226.403 14.72 224.776 14.1867 223.496 13.12C222.216 12 221.576 10.56 221.576 8.8C221.576 7.04 222.216 5.62667 223.496 4.56C224.776 3.44 226.403 2.88 228.376 2.88C230.403 2.88 232.03 3.44 233.256 4.56C234.536 5.62667 235.176 7.04 235.176 8.8C235.176 10.56 234.536 12 233.256 13.12C232.03 14.1867 230.403 14.72 228.376 14.72ZM272.023 11.36C268.129 11.36 265.223 12.1867 263.303 13.84C261.436 15.4933 260.503 18.1867 260.503 21.92V66H250.103V22.88C250.103 18.9867 250.823 15.5733 252.263 12.64C253.756 9.70666 256.023 7.41333 259.062 5.76C262.156 4.10666 266.076 3.28 270.823 3.28C273.116 3.28 275.143 3.46666 276.903 3.84C278.663 4.21333 280.396 4.69333 282.103 5.27999V13.44C280.556 12.6933 278.956 12.16 277.303 11.84C275.649 11.52 273.889 11.36 272.023 11.36ZM240.423 31.84V23.84H281.223V31.84H240.423ZM298.509 80.32C295.843 80.32 293.416 79.9733 291.229 79.28C289.096 78.64 287.096 77.7333 285.229 76.56V68.64C287.256 69.92 289.176 70.8533 290.989 71.44C292.856 72.0267 294.936 72.32 297.229 72.32C299.416 72.32 301.363 71.8133 303.069 70.8C304.776 69.84 306.189 68.1333 307.309 65.68L327.709 20.72H338.749L315.309 69.2C314.029 71.8667 312.509 74 310.749 75.6C309.043 77.2533 307.149 78.4533 305.069 79.2C303.043 79.9467 300.856 80.32 298.509 80.32ZM303.709 64.56L282.909 20.72H294.349L314.029 64.56H303.709Z" fill="#2F2F2F"/>
<path id="&#234;&#176;&#128;&#234;&#181;&#172;&#235;&#165;&#188; &#236;&#183;&#168;&#237;&#150;&#165;&#236;&#151;&#144; &#235;&#148;&#176;&#235;&#157;&#188; &#236;&#187;&#164;&#236;&#138;&#164;&#237;&#133;&#128;&#237;&#149;&#152;&#235;&#138;&#148; App Sevice" d="M21.2109 128.934H25.4297V130.867H21.2109V144.373H18.9258V118.328H21.2109V128.934ZM1.23047 137.605C4.57031 135.945 7.1582 133.885 8.99414 131.424C10.8301 128.963 11.8799 126.18 12.1436 123.074H2.43164V121.141H14.4727C14.4629 125.008 13.4863 128.519 11.543 131.673C9.59961 134.827 6.5918 137.41 2.51953 139.422L1.23047 137.605ZM47.5781 122.312C47.5781 123.992 47.5342 125.486 47.4463 126.795C47.3682 128.094 47.1631 129.568 46.8311 131.219H50.7129V133.123H39.9609V144.432H37.6465V133.123H26.9824V131.219H44.502C44.8535 129.559 45.0732 128.079 45.1611 126.78C45.249 125.472 45.293 123.982 45.293 122.312V121.932H29.9707V120.027H47.5781V122.312ZM76.7285 132.244H52.8809V130.428H76.7285V132.244ZM55.752 134.324H73.7402V139.861H58.0957V142.352H74.5898V144.021H55.7812V138.279H71.4551V136.053H55.752V134.324ZM55.8984 119.119H73.6523V124.51H58.2715V126.795H74.1211V128.465H55.9863V122.928H71.3379V120.789H55.8984V119.119ZM96.1816 123.25C96.1816 124.119 96.4453 124.935 96.9727 125.696C97.5098 126.458 98.252 127.122 99.1992 127.688C100.156 128.245 101.25 128.66 102.48 128.934L101.543 130.779C100.039 130.408 98.7256 129.842 97.6025 129.08C96.4893 128.309 95.6494 127.396 95.083 126.341C94.5264 127.493 93.6816 128.484 92.5488 129.314C91.416 130.145 90.0781 130.75 88.5352 131.131L87.5391 129.285C88.7793 129.012 89.8828 128.577 90.8496 127.981C91.8164 127.376 92.5635 126.668 93.0908 125.857C93.6279 125.037 93.8965 124.168 93.8965 123.25V123.133H88.0957V121.316H93.8965V118.416H96.1816V121.316H101.982V123.133H96.1816V123.25ZM86.3086 132.977C89.8535 132.967 92.998 132.918 95.7422 132.83C98.4961 132.732 101.143 132.518 103.682 132.186L103.828 133.855C101.611 134.217 99.082 134.49 96.2402 134.676V143.611H93.9551V134.793C91.9434 134.871 89.502 134.91 86.6309 134.91L86.3086 132.977ZM105.586 118.357H107.842V144.402H105.586V118.357ZM136.523 124.803H132.656V128.406H136.523V130.34H132.656V135.145H130.371V118.328H132.656V122.898H136.523V124.803ZM112.354 121.316H118.975V118.123H121.26V121.316H127.881V123.133H112.354V121.316ZM113.848 129.08C113.848 128.162 114.106 127.356 114.624 126.663C115.142 125.97 115.874 125.433 116.821 125.052C117.769 124.671 118.867 124.48 120.117 124.48C121.357 124.48 122.446 124.671 123.384 125.052C124.331 125.433 125.063 125.97 125.581 126.663C126.108 127.356 126.377 128.162 126.387 129.08C126.377 130.008 126.108 130.818 125.581 131.512C125.063 132.205 124.331 132.742 123.384 133.123C122.446 133.494 121.357 133.68 120.117 133.68C118.867 133.68 117.769 133.494 116.821 133.123C115.874 132.742 115.142 132.205 114.624 131.512C114.106 130.818 113.848 130.008 113.848 129.08ZM115.898 139.832C115.898 138.895 116.235 138.089 116.909 137.415C117.593 136.741 118.574 136.224 119.854 135.862C121.133 135.501 122.656 135.32 124.424 135.32C126.182 135.32 127.7 135.501 128.979 135.862C130.259 136.224 131.24 136.741 131.924 137.415C132.607 138.089 132.949 138.895 132.949 139.832C132.949 140.77 132.607 141.57 131.924 142.234C131.24 142.908 130.259 143.421 128.979 143.772C127.7 144.134 126.182 144.314 124.424 144.314C122.656 144.314 121.133 144.134 119.854 143.772C118.574 143.421 117.593 142.908 116.909 142.234C116.235 141.57 115.898 140.77 115.898 139.832ZM116.045 129.08C116.045 129.646 116.211 130.145 116.543 130.574C116.875 130.994 117.349 131.321 117.964 131.556C118.589 131.78 119.307 131.893 120.117 131.893C120.918 131.893 121.626 131.78 122.241 131.556C122.866 131.321 123.35 130.994 123.691 130.574C124.033 130.145 124.209 129.646 124.219 129.08C124.209 128.514 124.033 128.016 123.691 127.586C123.35 127.156 122.866 126.824 122.241 126.59C121.626 126.346 120.918 126.219 120.117 126.209C119.307 126.219 118.589 126.346 117.964 126.59C117.349 126.824 116.875 127.156 116.543 127.586C116.211 128.016 116.045 128.514 116.045 129.08ZM118.184 139.832C118.174 140.389 118.413 140.872 118.901 141.282C119.399 141.683 120.112 141.99 121.04 142.205C121.968 142.42 123.066 142.527 124.336 142.527C125.645 142.527 126.772 142.42 127.72 142.205C128.677 141.99 129.404 141.683 129.902 141.282C130.41 140.872 130.664 140.389 130.664 139.832C130.674 138.973 130.122 138.309 129.009 137.84C127.905 137.371 126.377 137.137 124.424 137.137C122.461 137.137 120.928 137.371 119.824 137.84C118.721 138.309 118.174 138.973 118.184 139.832ZM160.547 144.373H158.32V118.328H160.547V144.373ZM138.545 129.578C138.545 127.752 138.774 126.16 139.233 124.803C139.702 123.436 140.356 122.381 141.196 121.639C142.036 120.896 143.018 120.525 144.141 120.525C145.186 120.525 146.113 120.853 146.924 121.507C147.734 122.151 148.379 123.074 148.857 124.275C149.346 125.467 149.639 126.873 149.736 128.494H153.105V118.885H155.303V143.055H153.105V130.398H149.751C149.683 132.068 149.404 133.528 148.916 134.778C148.438 136.019 147.788 136.971 146.968 137.635C146.147 138.299 145.205 138.631 144.141 138.631C143.018 138.631 142.036 138.265 141.196 137.532C140.356 136.79 139.702 135.735 139.233 134.368C138.774 133.001 138.545 131.404 138.545 129.578ZM140.713 129.578C140.703 130.975 140.835 132.19 141.108 133.226C141.392 134.261 141.792 135.057 142.31 135.613C142.837 136.17 143.447 136.443 144.141 136.434C144.834 136.443 145.439 136.175 145.957 135.628C146.484 135.071 146.89 134.28 147.173 133.255C147.456 132.229 147.598 131.028 147.598 129.651C147.598 128.235 147.456 127.005 147.173 125.96C146.899 124.915 146.499 124.109 145.972 123.543C145.454 122.977 144.844 122.693 144.141 122.693C143.438 122.693 142.827 122.977 142.31 123.543C141.792 124.1 141.392 124.896 141.108 125.931C140.835 126.966 140.703 128.182 140.713 129.578ZM192.275 128.582H196.084V130.545H192.275V144.373H189.99V118.299H192.275V128.582ZM172.471 121.082H179.092V122.986H174.756V135.599C176.445 135.54 177.979 135.359 179.355 135.057L179.59 136.99C178.486 137.215 177.466 137.366 176.528 137.444C175.591 137.513 174.619 137.547 173.613 137.547H172.471V121.082ZM180.586 121.082H187.529V122.986H182.871V135.613C183.984 135.594 184.961 135.545 185.801 135.467C186.65 135.379 187.51 135.223 188.379 134.998L188.613 136.932C187.559 137.186 186.543 137.352 185.566 137.43C184.59 137.508 183.35 137.547 181.846 137.547H180.586V121.082ZM217.764 128.699H222.129V130.633H217.764V144.432H215.479V118.328H217.764V128.699ZM198.633 120.76H210.469V130.076H200.977V136.17H201.475C203.848 136.17 205.923 136.106 207.7 135.979C209.478 135.843 211.289 135.604 213.135 135.262L213.369 137.166C211.406 137.527 209.482 137.776 207.598 137.913C205.713 138.04 203.438 138.113 200.771 138.133H198.691V128.172H208.184V122.664H198.633V120.76ZM244.307 121.053C244.297 123.729 243.926 126.209 243.193 128.494C242.461 130.779 241.216 132.913 239.458 134.896C237.71 136.868 235.361 138.592 232.412 140.066L231.094 138.309C233.438 137.137 235.376 135.809 236.909 134.324C238.452 132.83 239.639 131.185 240.469 129.388L231.592 130.223L231.182 128.23L241.172 127.571C241.621 126.204 241.909 124.666 242.036 122.957H232.5V121.053H244.307ZM244.219 128.816H250.342V118.328H252.627V144.373H250.342V130.721H244.219V128.816ZM269.971 122.166C269.971 123.592 270.449 124.964 271.406 126.282C272.363 127.601 273.584 128.724 275.068 129.651C276.562 130.569 278.076 131.17 279.609 131.453L278.555 133.387C277.217 133.074 275.903 132.566 274.614 131.863C273.335 131.16 272.183 130.291 271.157 129.256C270.132 128.221 269.346 127.088 268.799 125.857C268.252 127.088 267.466 128.221 266.44 129.256C265.415 130.281 264.258 131.15 262.969 131.863C261.689 132.566 260.381 133.074 259.043 133.387L257.988 131.453C259.521 131.16 261.025 130.555 262.5 129.637C263.984 128.719 265.2 127.601 266.147 126.282C267.095 124.964 267.568 123.592 267.568 122.166V120.174H269.971V122.166ZM256.992 138.924H280.84V140.828H256.992V138.924ZM304.512 133.768H302.197V126.795H297.1V124.861H302.197V118.328H304.512V133.768ZM284.268 119.91H295.986V121.785H286.553V125.125H295.283V126.941H286.553V130.545H287.285C289.561 130.545 291.436 130.501 292.91 130.413C294.395 130.315 295.889 130.135 297.393 129.871L297.598 131.775C295.996 132.049 294.409 132.234 292.837 132.332C291.274 132.43 289.292 132.479 286.89 132.479H286.172H284.268V119.91ZM287.49 135.115H304.512V144.021H287.49V135.115ZM302.256 142.146V136.99H289.775V142.146H302.256ZM329.004 129.08H333.369V130.984H329.004V144.373H326.719V118.328H329.004V129.08ZM308.701 122.518H315.41V118.65H317.695V122.518H324.199V124.422H308.701V122.518ZM310.195 132.566C310.195 131.414 310.469 130.384 311.016 129.476C311.562 128.567 312.319 127.859 313.286 127.352C314.263 126.844 315.361 126.59 316.582 126.59C317.793 126.59 318.882 126.844 319.849 127.352C320.815 127.859 321.572 128.567 322.119 129.476C322.676 130.384 322.959 131.414 322.969 132.566C322.959 133.729 322.676 134.764 322.119 135.672C321.572 136.57 320.815 137.273 319.849 137.781C318.882 138.289 317.793 138.543 316.582 138.543C315.361 138.543 314.263 138.289 313.286 137.781C312.319 137.273 311.562 136.57 311.016 135.672C310.469 134.764 310.195 133.729 310.195 132.566ZM312.393 132.566C312.393 133.348 312.568 134.046 312.92 134.661C313.281 135.267 313.779 135.74 314.414 136.082C315.059 136.424 315.781 136.59 316.582 136.58C317.373 136.59 318.086 136.424 318.721 136.082C319.355 135.74 319.854 135.267 320.215 134.661C320.576 134.046 320.762 133.348 320.771 132.566C320.762 131.795 320.576 131.102 320.215 130.486C319.854 129.861 319.355 129.378 318.721 129.036C318.086 128.694 317.373 128.523 316.582 128.523C315.781 128.523 315.059 128.694 314.414 129.036C313.779 129.378 313.281 129.861 312.92 130.486C312.568 131.102 312.393 131.795 312.393 132.566ZM355.84 128.084H337.998V119.295H340.283V126.238H355.84V128.084ZM334.746 131.629H358.594V133.504H334.746V131.629ZM337.852 136.17H340.137V141.824H355.986V143.729H337.852V136.17ZM372.698 136.84V133.57H388.418V136.84H372.698ZM383.138 119.5L393.938 142H389.708L379.898 121H381.428L371.618 142H367.388L378.188 119.5H383.138ZM396.23 125.02H400.13V130.93L399.95 131.53V134.95L400.13 136V146.95H396.23V125.02ZM398.63 133.51C399.01 131.71 399.64 130.15 400.52 128.83C401.4 127.49 402.48 126.45 403.76 125.71C405.06 124.97 406.5 124.6 408.08 124.6C409.74 124.6 411.21 124.98 412.49 125.74C413.77 126.48 414.77 127.52 415.49 128.86C416.21 130.18 416.57 131.73 416.57 133.51C416.57 135.27 416.21 136.82 415.49 138.16C414.77 139.5 413.77 140.55 412.49 141.31C411.21 142.05 409.74 142.42 408.08 142.42C406.5 142.42 405.07 142.05 403.79 141.31C402.51 140.57 401.42 139.53 400.52 138.19C399.64 136.85 399.01 135.29 398.63 133.51ZM412.61 133.51C412.61 132.37 412.37 131.37 411.89 130.51C411.43 129.63 410.79 128.95 409.97 128.47C409.15 127.97 408.21 127.72 407.15 127.72C406.09 127.72 405.09 127.97 404.15 128.47C403.23 128.95 402.42 129.63 401.72 130.51C401.02 131.37 400.45 132.37 400.01 133.51C400.45 134.65 401.02 135.66 401.72 136.54C402.42 137.4 403.23 138.08 404.15 138.58C405.09 139.06 406.09 139.3 407.15 139.3C408.21 139.3 409.15 139.06 409.97 138.58C410.79 138.08 411.43 137.4 411.89 136.54C412.37 135.66 412.61 134.65 412.61 133.51ZM419.814 125.02H423.714V130.93L423.534 131.53V134.95L423.714 136V146.95H419.814V125.02ZM422.214 133.51C422.594 131.71 423.224 130.15 424.104 128.83C424.984 127.49 426.064 126.45 427.344 125.71C428.644 124.97 430.084 124.6 431.664 124.6C433.324 124.6 434.794 124.98 436.074 125.74C437.354 126.48 438.354 127.52 439.074 128.86C439.794 130.18 440.154 131.73 440.154 133.51C440.154 135.27 439.794 136.82 439.074 138.16C438.354 139.5 437.354 140.55 436.074 141.31C434.794 142.05 433.324 142.42 431.664 142.42C430.084 142.42 428.654 142.05 427.374 141.31C426.094 140.57 425.004 139.53 424.104 138.19C423.224 136.85 422.594 135.29 422.214 133.51ZM436.194 133.51C436.194 132.37 435.954 131.37 435.474 130.51C435.014 129.63 434.374 128.95 433.554 128.47C432.734 127.97 431.794 127.72 430.734 127.72C429.674 127.72 428.674 127.97 427.734 128.47C426.814 128.95 426.004 129.63 425.304 130.51C424.604 131.37 424.034 132.37 423.594 133.51C424.034 134.65 424.604 135.66 425.304 136.54C426.004 137.4 426.814 138.08 427.734 138.58C428.674 139.06 429.674 139.3 430.734 139.3C431.794 139.3 432.734 139.06 433.554 138.58C434.374 138.08 435.014 137.4 435.474 136.54C435.954 135.66 436.194 134.65 436.194 133.51ZM450.408 134.68H454.428C454.548 135.58 454.918 136.37 455.538 137.05C456.178 137.73 457.018 138.26 458.058 138.64C459.098 139 460.298 139.18 461.658 139.18C463.678 139.18 465.278 138.87 466.458 138.25C467.638 137.61 468.228 136.75 468.228 135.67C468.228 134.79 467.888 134.13 467.208 133.69C466.528 133.25 465.298 132.92 463.518 132.7L458.658 132.07C455.938 131.71 453.958 131.04 452.718 130.06C451.498 129.06 450.888 127.65 450.888 125.83C450.888 124.45 451.298 123.26 452.118 122.26C452.958 121.24 454.138 120.46 455.658 119.92C457.178 119.36 458.958 119.08 460.998 119.08C463.018 119.08 464.808 119.38 466.368 119.98C467.928 120.58 469.168 121.42 470.088 122.5C471.028 123.56 471.538 124.81 471.618 126.25H467.598C467.498 125.45 467.158 124.76 466.578 124.18C466.018 123.6 465.258 123.15 464.298 122.83C463.338 122.49 462.208 122.32 460.908 122.32C459.068 122.32 457.598 122.62 456.498 123.22C455.398 123.82 454.848 124.64 454.848 125.68C454.848 126.48 455.168 127.1 455.808 127.54C456.468 127.96 457.608 128.28 459.228 128.5L464.148 129.19C466.168 129.47 467.758 129.85 468.918 130.33C470.098 130.79 470.938 131.42 471.438 132.22C471.938 133 472.188 134.01 472.188 135.25C472.188 136.69 471.748 137.95 470.868 139.03C469.988 140.11 468.748 140.95 467.148 141.55C465.568 142.13 463.718 142.42 461.598 142.42C459.438 142.42 457.528 142.1 455.868 141.46C454.228 140.8 452.928 139.89 451.968 138.73C451.008 137.57 450.488 136.22 450.408 134.68ZM484.69 142.42C482.71 142.42 480.95 142.05 479.41 141.31C477.87 140.55 476.66 139.5 475.78 138.16C474.9 136.82 474.46 135.26 474.46 133.48C474.46 131.72 474.87 130.18 475.69 128.86C476.53 127.52 477.68 126.48 479.14 125.74C480.62 124.98 482.31 124.6 484.21 124.6C486.11 124.6 487.75 125.03 489.13 125.89C490.53 126.73 491.61 127.92 492.37 129.46C493.13 131 493.51 132.81 493.51 134.89H477.52V131.92H491.56L489.61 133.03C489.55 131.91 489.28 130.95 488.8 130.15C488.34 129.35 487.71 128.74 486.91 128.32C486.13 127.88 485.2 127.66 484.12 127.66C482.98 127.66 481.98 127.89 481.12 128.35C480.28 128.81 479.62 129.46 479.14 130.3C478.66 131.12 478.42 132.1 478.42 133.24C478.42 134.5 478.7 135.59 479.26 136.51C479.84 137.43 480.65 138.14 481.69 138.64C482.75 139.12 484 139.36 485.44 139.36C486.74 139.36 488.07 139.16 489.43 138.76C490.79 138.34 491.99 137.76 493.03 137.02V139.84C491.99 140.64 490.72 141.27 489.22 141.73C487.74 142.19 486.23 142.42 484.69 142.42ZM505.202 140.26H503.702L510.662 125.02H514.832L506.552 142H502.172L493.892 125.02H498.182L505.202 140.26ZM517.138 124.9L519.088 125.26L521.038 124.9V142H517.138V124.9ZM519.088 122.77C518.348 122.77 517.738 122.57 517.258 122.17C516.778 121.75 516.538 121.21 516.538 120.55C516.538 119.89 516.778 119.36 517.258 118.96C517.738 118.54 518.348 118.33 519.088 118.33C519.848 118.33 520.458 118.54 520.918 118.96C521.398 119.36 521.638 119.89 521.638 120.55C521.638 121.21 521.398 121.75 520.918 122.17C520.458 122.57 519.848 122.77 519.088 122.77ZM543.916 135.31C543.716 136.71 543.166 137.95 542.266 139.03C541.366 140.09 540.216 140.92 538.816 141.52C537.416 142.12 535.856 142.42 534.136 142.42C532.176 142.42 530.446 142.05 528.946 141.31C527.466 140.55 526.306 139.5 525.466 138.16C524.626 136.82 524.206 135.27 524.206 133.51C524.206 131.75 524.626 130.2 525.466 128.86C526.306 127.52 527.466 126.48 528.946 125.74C530.446 124.98 532.176 124.6 534.136 124.6C535.856 124.6 537.416 124.9 538.816 125.5C540.216 126.1 541.366 126.94 542.266 128.02C543.166 129.08 543.716 130.32 543.916 131.74H539.986C539.706 130.46 539.036 129.46 537.976 128.74C536.916 128.02 535.636 127.66 534.136 127.66C532.936 127.66 531.886 127.9 530.986 128.38C530.086 128.84 529.386 129.51 528.886 130.39C528.406 131.25 528.166 132.29 528.166 133.51C528.166 134.71 528.406 135.75 528.886 136.63C529.386 137.51 530.086 138.19 530.986 138.67C531.886 139.13 532.936 139.36 534.136 139.36C535.656 139.36 536.946 138.99 538.006 138.25C539.066 137.51 539.726 136.53 539.986 135.31H543.916ZM556.145 142.42C554.165 142.42 552.405 142.05 550.865 141.31C549.325 140.55 548.115 139.5 547.235 138.16C546.355 136.82 545.915 135.26 545.915 133.48C545.915 131.72 546.325 130.18 547.145 128.86C547.985 127.52 549.135 126.48 550.595 125.74C552.075 124.98 553.765 124.6 555.665 124.6C557.565 124.6 559.205 125.03 560.585 125.89C561.985 126.73 563.065 127.92 563.825 129.46C564.585 131 564.965 132.81 564.965 134.89H548.975V131.92H563.015L561.065 133.03C561.005 131.91 560.735 130.95 560.255 130.15C559.795 129.35 559.165 128.74 558.365 128.32C557.585 127.88 556.655 127.66 555.575 127.66C554.435 127.66 553.435 127.89 552.575 128.35C551.735 128.81 551.075 129.46 550.595 130.3C550.115 131.12 549.875 132.1 549.875 133.24C549.875 134.5 550.155 135.59 550.715 136.51C551.295 137.43 552.105 138.14 553.145 138.64C554.205 139.12 555.455 139.36 556.895 139.36C558.195 139.36 559.525 139.16 560.885 138.76C562.245 138.34 563.445 137.76 564.485 137.02V139.84C563.445 140.64 562.175 141.27 560.675 141.73C559.195 142.19 557.685 142.42 556.145 142.42Z" fill="#2F2F2F"/>
</g>
</svg>
