<svg width="41" height="40" viewBox="0 0 41 40" fill="none" xmlns="http://www.w3.org/2000/svg">
<path d="M10.463 3.35449L8.63397 6.06797C8.35144 6.48691 8.20273 6.97031 8.20273 7.46016V7.64062C8.20273 9.06504 9.53362 10.2188 11.1768 10.2188C12.8199 10.2188 14.1508 9.06504 14.1508 7.64062V7.46016C14.1508 6.97031 14.0021 6.49336 13.7196 6.06797L11.8906 3.35449C11.7419 3.13535 11.4742 3 11.1768 3C10.8794 3 10.6117 3.13535 10.463 3.35449ZM19.98 3.35449L18.1509 6.06797C17.8684 6.48691 17.7197 6.97031 17.7197 7.46016V7.64062C17.7197 9.06504 19.0506 10.2188 20.6937 10.2188C22.3369 10.2188 23.6678 9.06504 23.6678 7.64062V7.46016C23.6678 6.97031 23.5191 6.49336 23.2366 6.06797L21.4075 3.35449C21.2588 3.13535 20.9911 3 20.6937 3C20.3963 3 20.1287 3.13535 19.98 3.35449ZM27.6679 6.06797C27.3854 6.48691 27.2367 6.97031 27.2367 7.46016V7.64062C27.2367 9.06504 28.5675 10.2188 30.2107 10.2188C31.8539 10.2188 33.1848 9.06504 33.1848 7.64062V7.46016C33.1848 6.97031 33.0361 6.49336 32.7535 6.06797L30.9245 3.35449C30.7758 3.13535 30.5081 3 30.2107 3C29.9133 3 29.6456 3.13535 29.4969 3.35449L27.6679 6.06797ZM13.556 14.3438C13.556 13.2029 12.4928 12.2812 11.1768 12.2812C9.86077 12.2812 8.79754 13.2029 8.79754 14.3438V17.4375C6.17294 17.4375 4.03906 19.2873 4.03906 21.5625V26.1387C4.65618 26.4738 5.38482 26.7188 6.18038 26.7188C7.18412 26.7188 8.20273 26.3256 9.03547 25.8551C9.43696 25.6295 9.77154 25.3975 10.002 25.2299C10.1136 25.1461 10.2028 25.0752 10.2623 25.0301C10.292 25.0043 10.3143 24.9914 10.3217 24.9785L10.3292 24.9721C10.5597 24.7658 10.8794 24.6563 11.214 24.6627C11.5485 24.6691 11.8534 24.798 12.0764 25.0107L12.0839 25.0172C12.0913 25.0236 12.1136 25.043 12.1359 25.0623C12.188 25.1074 12.2623 25.1719 12.3664 25.2557C12.5746 25.4232 12.872 25.6488 13.2437 25.868C14.0021 26.3256 14.9538 26.7123 15.9427 26.7123C16.9316 26.7123 17.8833 26.3256 18.6416 25.868C19.0134 25.6424 19.3108 25.4232 19.519 25.2557C19.6231 25.1719 19.6974 25.1074 19.7495 25.0623C19.7718 25.043 19.7941 25.0236 19.8015 25.0172L19.809 25.0107C20.032 24.7852 20.3592 24.6627 20.7012 24.6627C21.0432 24.6627 21.3703 24.7916 21.5934 25.0107L21.6008 25.0172C21.6083 25.0236 21.6306 25.043 21.6529 25.0623C21.7049 25.1074 21.7793 25.1719 21.8834 25.2557C22.0915 25.4232 22.389 25.6488 22.7607 25.868C23.5191 26.3256 24.4708 26.7123 25.4597 26.7123C26.4485 26.7123 27.4002 26.3256 28.1586 25.868C28.5304 25.6424 28.8278 25.4232 29.036 25.2557C29.14 25.1719 29.2144 25.1074 29.2664 25.0623C29.2887 25.043 29.3111 25.0236 29.3185 25.0172L29.3259 25.0107C29.5415 24.7916 29.8538 24.6691 30.1884 24.6627C30.523 24.6563 30.8353 24.7658 31.0732 24.9721L31.0806 24.9785C31.0955 24.9914 31.1104 25.0043 31.1401 25.0301C31.1996 25.0752 31.2814 25.1461 31.4003 25.2299C31.6308 25.3975 31.958 25.6295 32.3669 25.8551C33.1996 26.3256 34.2182 26.7188 35.222 26.7188C36.0175 26.7188 36.7462 26.4674 37.3633 26.1387V21.5625C37.3633 19.2873 35.2294 17.4375 32.6048 17.4375V14.3438C32.6048 13.2029 31.5416 12.2812 30.2256 12.2812C28.9096 12.2812 27.8463 13.2029 27.8463 14.3438V17.4375H23.073V14.3438C23.073 13.2029 22.0098 12.2812 20.6937 12.2812C19.3777 12.2812 18.3145 13.2029 18.3145 14.3438V17.4375H13.556V14.3438ZM37.3484 28.4332C36.7164 28.6459 35.9952 28.7812 35.2071 28.7812C33.5342 28.7812 32.0546 28.1432 31.0583 27.5824C30.7535 27.4084 30.4784 27.2344 30.2479 27.0797C30.0397 27.2344 29.7943 27.402 29.5192 27.5631C28.5601 28.1367 27.1326 28.7812 25.4522 28.7812C23.7719 28.7812 22.3443 28.1367 21.3926 27.5631C21.1324 27.4084 20.8945 27.2473 20.6937 27.099C20.493 27.2473 20.2551 27.402 19.9948 27.5631C19.0431 28.1367 17.6156 28.7812 15.9353 28.7812C14.2549 28.7812 12.8274 28.1367 11.8757 27.5631C11.6006 27.3955 11.3552 27.2279 11.147 27.0797C10.9166 27.2344 10.6415 27.4084 10.3366 27.5824C9.33287 28.1432 7.85328 28.7812 6.18038 28.7812C5.39226 28.7812 4.67105 28.6395 4.03906 28.4332V33.9375C4.03906 35.0783 5.10229 36 6.4183 36H34.9692C36.2852 36 37.3484 35.0783 37.3484 33.9375V28.4332Z" fill="white"/>
</svg>
