<svg width="41" height="40" viewBox="0 0 41 40" fill="none" xmlns="http://www.w3.org/2000/svg">
<path d="M7.88945 8C6.32146 8 5.04932 9.34375 5.04932 11C5.04932 11.9438 5.46942 12.8312 6.18537 13.4L19.0606 23.6C19.7352 24.1313 20.6582 24.1313 21.3328 23.6L34.208 13.4C34.924 12.8312 35.3441 11.9438 35.3441 11C35.3441 9.34375 34.0719 8 32.5039 8H7.88945ZM5.04932 15V28C5.04932 30.2062 6.74748 32 8.83616 32H31.5572C33.6459 32 35.3441 30.2062 35.3441 28V15L22.4688 25.2C21.1197 26.2688 19.2737 26.2688 17.9246 25.2L5.04932 15Z" fill="white"/>
</svg>
