<svg width="41" height="40" viewBox="0 0 41 40" fill="none" xmlns="http://www.w3.org/2000/svg">
<path d="M15.1653 7.34649C14.74 6.32934 13.619 5.78796 12.5477 6.07779L7.68814 7.39023C6.72727 7.65272 6.05908 8.51675 6.05908 9.50108C6.05908 23.0302 17.1367 34 30.7987 34C31.7927 34 32.6652 33.3383 32.9303 32.3868L34.2556 27.5745C34.5483 26.5136 34.0016 25.4035 32.9745 24.9824L27.6731 22.795C26.773 22.4232 25.7293 22.6802 25.1163 23.4294L22.8853 26.1253C18.9977 24.3043 15.85 21.1873 14.0111 17.3375L16.7336 15.1336C17.4901 14.5212 17.7497 13.4931 17.3741 12.6017L15.1653 7.35195V7.34649Z" fill="white"/>
</svg>
