<svg width="41" height="40" viewBox="0 0 41 40" fill="none" xmlns="http://www.w3.org/2000/svg">
<path d="M20.1965 20.0001C22.033 20.0001 23.7943 19.2837 25.0929 18.0085C26.3915 16.7332 27.121 15.0036 27.121 13.2001C27.121 11.3967 26.3915 9.66707 25.0929 8.39182C23.7943 7.11657 22.033 6.40015 20.1965 6.40015C18.36 6.40015 16.5987 7.11657 15.3001 8.39182C14.0015 9.66707 13.272 11.3967 13.272 13.2001C13.272 15.0036 14.0015 16.7332 15.3001 18.0085C16.5987 19.2837 18.36 20.0001 20.1965 20.0001ZM17.7242 22.5501C12.3956 22.5501 8.07861 26.7895 8.07861 32.0223C8.07861 32.8936 8.79811 33.6001 9.68532 33.6001H30.7077C31.5949 33.6001 32.3144 32.8936 32.3144 32.0223C32.3144 26.7895 27.9974 22.5501 22.6688 22.5501H17.7242Z" fill="white"/>
</svg>
